<?xml version="1.0" encoding="UTF-8"?>
<svg version="1.1" xmlns="http://www.w3.org/2000/svg" width="500" height="500">
<path d="M0 0 C7.91737 7.03766223 10.36354665 16.61846386 13.22741699 26.421875 C14.59758834 31.10500764 16.02277985 35.77157992 17.4375 40.44140625 C17.73984558 41.44446808 18.04219116 42.44752991 18.35369873 43.48098755 C22.09478583 55.86542259 26.0380665 68.1847495 30 80.5 C30.37664795 81.67126434 30.7532959 82.84252869 31.14135742 84.04928589 C36.7989985 101.61790097 42.58560269 119.14118267 48.5 136.625 C49.02539368 138.1860144 49.02539368 138.1860144 49.56140137 139.77856445 C53.36506233 151.061243 57.29791945 162.1635458 62.25 173 C62.91 170.69 63.57 168.38 64.25 166 C64.91 166 65.57 166 66.25 166 C66.37528076 165.29818604 66.50056152 164.59637207 66.62963867 163.87329102 C67.28622389 160.83222396 68.18301417 157.97562413 69.17578125 155.02734375 C69.56056641 153.87943359 69.94535156 152.73152344 70.34179688 151.54882812 C70.94604492 149.7612207 70.94604492 149.7612207 71.5625 147.9375 C71.95373047 146.77283203 72.34496094 145.60816406 72.74804688 144.40820312 C73.53075496 142.07825119 74.31573487 139.74906116 75.10302734 137.4206543 C75.8600214 135.16304602 76.6054021 132.90150616 77.33837891 130.63598633 C77.6791748 129.58564209 78.0199707 128.53529785 78.37109375 127.453125 C78.66814209 126.52532227 78.96519043 125.59751953 79.27124023 124.64160156 C82.73350232 115.29720752 89.50358921 105.04783853 98.5625 100.4375 C105.66975965 97.79975415 112.52141347 97.87078907 119.4375 101 C134.49086067 109.56443182 139.00259431 125.471041 144.5687561 140.82498169 C146.29784027 145.58818033 148.0544129 150.34119337 149.8125 155.09375 C150.17527542 156.07469131 150.53805084 157.05563263 150.91181946 158.06629944 C162.29952609 188.74792942 174.48102682 219.22446985 188.10192871 248.98562622 C188.90038736 250.73135778 189.69301336 252.47975353 190.48535156 254.22827148 C195.80978338 265.70918404 202.21513941 276.20327842 210.25 286 C210.67152344 286.59039062 211.09304688 287.18078125 211.52734375 287.7890625 C219.32391545 298.16869291 234.70595149 305.83507769 247.25 308 C249.16042776 308.14156928 251.07395604 308.24474702 252.98828125 308.31640625 C254.05498047 308.35830078 255.12167969 308.40019531 256.22070312 308.44335938 C257.87489258 308.50233398 257.87489258 308.50233398 259.5625 308.5625 C260.68462891 308.60568359 261.80675781 308.64886719 262.96289062 308.69335938 C265.72514569 308.79914787 268.4874863 308.90123672 271.25 309 C270.64582019 312.617431 270.30100906 312.95940095 267.1875 315.4375 C265.88443263 316.30598855 264.57129074 317.15949555 263.25 318 C262.56663574 318.44279297 261.88327148 318.88558594 261.17919922 319.34179688 C253.54755562 324.20667601 246.24245388 327.61437031 237.25 329 C236.30640625 329.14695312 235.3628125 329.29390625 234.390625 329.4453125 C222.62326951 330.82109784 208.55446747 329.34714081 198.25 323 C196.25 321 196.25 321 195.25 319 C194.486875 318.71125 193.72375 318.4225 192.9375 318.125 C189.93087153 316.86641134 188.49643616 315.31890185 186.25 313 C185.610625 312.71125 184.97125 312.4225 184.3125 312.125 C180.68134077 310.14436769 178.09044007 306.68088014 176.25 303 C175.26 302.67 174.27 302.34 173.25 302 C170.25 297.66666667 170.25 297.66666667 170.25 295 C169.59 295 168.93 295 168.25 295 C167.9921875 294.30648438 167.734375 293.61296875 167.46875 292.8984375 C166.10701172 289.65994454 164.46290327 286.69278167 162.75 283.625 C158.51603123 275.90563688 155.0612604 267.88656098 151.6640625 259.77001953 C151.26316406 258.8211084 150.86226562 257.87219727 150.44921875 256.89453125 C150.09690186 256.04737549 149.74458496 255.20021973 149.3815918 254.32739258 C148.23345109 251.96596316 146.89220843 250.04179973 145.25 248 C144.68152344 248.9178125 144.11304688 249.835625 143.52734375 250.78125 C134.25414714 265.59695401 124.60148047 276.62586091 107.25 282 C104.34909595 282.45067616 102.24779281 282.29010898 99.25 282 C98.49460937 281.9896875 97.73921875 281.979375 96.9609375 281.96875 C89.4490984 281.6825847 83.72128202 278.6359265 77.25 275 C77.25 274.34 77.25 273.68 77.25 273 C76.1671875 272.690625 76.1671875 272.690625 75.0625 272.375 C71.41515359 270.59185287 69.73106503 268.1808526 67.25 265 C66.64800781 264.43539063 66.04601562 263.87078125 65.42578125 263.2890625 C62.49954032 260.21046792 60.29281524 256.81503829 58 253.25 C57.51982422 252.50645264 57.03964844 251.76290527 56.54492188 250.99682617 C51.85688751 243.60349634 48.00020378 235.89842447 44.25 228 C43.6828125 226.92105469 43.115625 225.84210938 42.53125 224.73046875 C41.25 222 41.25 222 41.25 219 C40.59 218.67 39.93 218.34 39.25 218 C38.1796875 215.56640625 38.1796875 215.56640625 37.125 212.5625 C36.77179688 211.57378906 36.41859375 210.58507812 36.0546875 209.56640625 C35.25 207 35.25 207 35.25 205 C34.59 204.67 33.93 204.34 33.25 204 C32.44384766 202.11743164 32.44384766 202.11743164 31.6640625 199.66015625 C31.37273437 198.76103516 31.08140625 197.86191406 30.78125 196.93554688 C30.4821875 195.98744141 30.183125 195.03933594 29.875 194.0625 C27.59566324 186.91688012 25.12644256 179.92835083 22.25 173 C19.58834246 166.56840065 17.25963914 160.0862209 15.11010742 153.46704102 C13.95564627 149.96094917 12.6958668 146.58959087 11.125 143.25 C9.2094177 139.16496305 8.09041515 135.01595332 6.9765625 130.65234375 C6.3027391 128.19252608 5.49393617 125.87211548 4.5625 123.5 C3.25 120 3.25 120 3.25 117 C2.59 116.67 1.93 116.34 1.25 116 C0.57421875 114.0234375 0.57421875 114.0234375 -0.0625 111.375 C-1.92348038 104.12001051 -4.34343959 97.08761389 -6.75 90 C-12.23781828 73.71070017 -17.43503221 57.31780166 -22.36816406 40.85229492 C-23.55632652 36.88793181 -24.74787996 32.93605376 -26.109375 29.02734375 C-28.60277223 21.72647174 -29.94289378 15.23589616 -26.86328125 7.8828125 C-21.09861934 -1.86654554 -9.9229824 -3.60835724 0 0 Z M108.25 155 C107.95456299 155.81227051 107.65912598 156.62454102 107.35473633 157.46142578 C101.16721159 174.39907743 94.67679655 191.12017685 87.3527832 207.60205078 C86.83031006 208.78009277 86.30783691 209.95813477 85.76953125 211.171875 C85.30651611 212.2040918 84.84350098 213.23630859 84.36645508 214.29980469 C83.00579423 217.57021656 83.00579423 217.57021656 82.25 221 C85.44016352 227.76937137 89.67767455 235.14233071 96.25 239 C100.24223238 239.74854357 101.82253076 239.23938278 105.375 237.25 C110.17501898 233.49346341 112.74680282 230.5049775 115.0625 224.8125 C115.5701577 223.56764519 116.07797776 222.32285659 116.5859375 221.078125 C116.85116211 220.42005859 117.11638672 219.76199219 117.38964844 219.08398438 C118.2968825 216.88643899 119.25620593 214.71723605 120.2265625 212.546875 C120.88038843 211.0521621 121.53403734 209.55737175 122.1875 208.0625 C122.50630127 207.36552002 122.82510254 206.66854004 123.15356445 205.95043945 C125.21405579 201.13917203 125.4299677 198.11319337 124.25 193 C123.59 193 122.93 193 122.25 193 C122.3325 192.195625 122.415 191.39125 122.5 190.5625 C122.21906972 186.55924353 121.09822949 184.01010041 119.3984375 180.4296875 C116.91893278 175.18393261 114.76924614 169.83263344 113.1875 164.25 C112.22424413 160.91071299 110.88999095 158.05634677 109.25 155 C108.92 155 108.59 155 108.25 155 Z " fill="#0488EB" transform="translate(110.75,89)"/>
<path d="M0 0 C0.99 0 1.98 0 3 0 C3.495 2.475 3.495 2.475 4 5 C14.56 5 25.12 5 36 5 C35.26669171 10.133158 34.47344475 14.09239072 32.875 18.90625 C32.65658951 19.56716644 32.43817902 20.22808289 32.21315002 20.9090271 C31.48287519 23.10858365 30.74237012 25.30449802 30 27.5 C29.74145233 28.26910706 29.48290466 29.03821411 29.21652222 29.83062744 C18.68234196 61.12747732 7.89341234 92.37060082 -5.84936523 122.42431641 C-8.78338312 128.51889671 -8.78338312 128.51889671 -8 135 C-4.64306676 141.12511203 -1.12947149 147.06115855 5.75 149.125 C10.1632618 149.4203112 12.781354 148.00746391 16.11328125 145.19921875 C21.83684541 138.52765224 24.46986842 129.29320906 27 121 C27.66 121 28.32 121 29 121 C29.11988281 120.30519531 29.23976563 119.61039062 29.36328125 118.89453125 C30.06536924 115.70283063 31.07203365 112.75954486 32.1875 109.6875 C32.63222656 108.46160156 33.07695312 107.23570312 33.53515625 105.97265625 C35.75154305 99.9434221 38.00693675 93.92887284 40.27636719 87.91943359 C41.28846129 85.23485741 42.29352614 82.54766003 43.29833984 79.86035156 C44.02107113 77.94413291 44.75940603 76.03437572 45.5 74.125 C46.59524795 71.21751188 47.51645428 68.29811686 48.375 65.3125 C49.52237523 61.3923013 50.88376413 57.61515146 52.375 53.8125 C54.67642496 47.93871392 56.69765987 42.00486307 58.6640625 36.01171875 C60.98933807 28.96687702 63.51092788 21.98821967 66 15 C69.74944648 15.61765824 72.05293545 17.29756998 75.0625 19.5625 C76.02671875 20.27664062 76.9909375 20.99078125 77.984375 21.7265625 C79.98153312 23.23219207 81.97126854 24.7477226 83.953125 26.2734375 C84.89671875 26.98757812 85.8403125 27.70171875 86.8125 28.4375 C87.66457031 29.09621094 88.51664063 29.75492188 89.39453125 30.43359375 C92.30843096 32.18542851 94.64177637 32.65192135 98 33 C97.3771153 39.12188701 95.63649253 44.58566938 93.640625 50.390625 C93.30002548 51.39577652 92.95942596 52.40092804 92.60850525 53.4365387 C91.49622291 56.71020554 90.37391749 59.98031094 89.25 63.25 C88.86695709 64.36958099 88.48391418 65.48916199 88.08926392 66.64266968 C51.16634137 174.52046907 51.16634137 174.52046907 24.46484375 189.4140625 C12.85087437 194.66395435 1.66427052 193.39730149 -10 189 C-14.06566798 187.11567245 -17.09509909 185.4635357 -20 182 C-20 181.34 -20 180.68 -20 180 C-21.1446875 179.62875 -21.1446875 179.62875 -22.3125 179.25 C-25.26080945 177.87869328 -26.35834532 176.7648921 -28 174 C-28 173.34 -28 172.68 -28 172 C-28.66 172 -29.32 172 -30 172 C-30.33 171.01 -30.66 170.02 -31 169 C-31.66 168.34 -32.32 167.68 -33 167 C-34.30920608 164.9858368 -35.54090917 162.93215064 -36.78125 160.875 C-37.9933611 158.86830276 -37.9933611 158.86830276 -40 157 C-40.27714844 156.29746094 -40.55429687 155.59492188 -40.83984375 154.87109375 C-42.68126429 150.31404291 -45.29580017 146.18556028 -47.81054688 141.97070312 C-50.16280169 137.90911747 -51.35986001 134.71114261 -52 130 C-52.66 129.67 -53.32 129.34 -54 129 C-54.93162915 126.97131223 -55.77220057 124.90030597 -56.5625 122.8125 C-56.99691406 121.68457031 -57.43132812 120.55664062 -57.87890625 119.39453125 C-59 116 -59 116 -59.52734375 112.63671875 C-59.68332031 111.76660156 -59.83929688 110.89648438 -60 110 C-60.99 109.505 -60.99 109.505 -62 109 C-62.82202148 107.17749023 -62.82202148 107.17749023 -63.62109375 104.80859375 C-63.91693359 103.94556641 -64.21277344 103.08253906 -64.51757812 102.19335938 C-64.82115234 101.28392578 -65.12472656 100.37449219 -65.4375 99.4375 C-66.03952726 97.66507995 -66.64238235 95.89294086 -67.24609375 94.12109375 C-67.53798584 93.25863037 -67.82987793 92.39616699 -68.13061523 91.50756836 C-68.94287904 89.16475412 -69.80214632 86.84725895 -70.6875 84.53125 C-72 81 -72 81 -72.5625 78.0625 C-72.706875 77.381875 -72.85125 76.70125 -73 76 C-73.66 75.67 -74.32 75.34 -75 75 C-75.60546875 73.3828125 -75.60546875 73.3828125 -76.1875 71.125 C-83.61909082 44.62816999 -83.61909082 44.62816999 -97.87109375 21.60546875 C-99.35491037 19.49526588 -99.62706857 17.52478866 -100 15 C-98.41800369 14.35089846 -96.83434276 13.70585306 -95.25 13.0625 C-94.36828125 12.70285156 -93.4865625 12.34320313 -92.578125 11.97265625 C-85.34472365 9.24369119 -77.41029702 8.55465655 -69.984375 10.98828125 C-46.61849847 22.5733178 -38.53006151 60.1817309 -30 83 C-25.45626539 72.72726266 -22.00161183 62.19892797 -18.57592773 51.51538086 C-17.86555866 49.30631493 -17.14619997 47.10033635 -16.42578125 44.89453125 C-16.21117752 44.21550247 -15.99657379 43.53647369 -15.77546692 42.83686829 C-15.24027967 41.20490461 -14.62687477 39.59898683 -14 38 C-13.34 37.67 -12.68 37.34 -12 37 C-11.79406305 35.14656748 -11.59118196 33.29275262 -11.40234375 31.4375 C-10.19583668 24.12817562 -6.68531874 17.08693469 -3.83203125 10.2890625 C-2.92417263 7.98434053 -2.92417263 7.98434053 -2.51171875 5.3984375 C-2 3 -2 3 0 0 Z " fill="#0488EA" transform="translate(369,178)"/>
<path d="M0 0 C8.12086478 6.25620269 10.01834267 17.00669235 12.6328125 26.40234375 C13.4211908 29.17747921 14.21781361 31.95021952 15.015625 34.72265625 C15.34691154 35.87510078 15.34691154 35.87510078 15.68489075 37.05082703 C34.20682474 101.26593028 54.41103037 165.42538696 80.9453125 226.83984375 C81.43870117 227.98372559 81.93208984 229.12760742 82.44042969 230.30615234 C94.13143457 257.16203796 109.63419161 290.67952839 138.64453125 302.41015625 C145.51642248 304.92338711 151.91688261 306.85622381 159.24609375 307.15625 C160.22255859 307.19814453 161.19902344 307.24003906 162.20507812 307.28320312 C163.71618164 307.34217773 163.71618164 307.34217773 165.2578125 307.40234375 C166.28455078 307.44552734 167.31128906 307.48871094 168.36914062 307.53320312 C170.89440819 307.638912 173.41976812 307.74100843 175.9453125 307.83984375 C175.34488395 311.18853965 175.06637563 311.73886892 172.28515625 314.05859375 C171.16007676 314.83231563 170.0253606 315.5921585 168.8828125 316.33984375 C168.29226074 316.7356665 167.70170898 317.13148926 167.09326172 317.53930664 C160.62496963 321.81404249 154.51258621 324.94802532 146.9453125 326.83984375 C145.11613281 327.36964844 145.11613281 327.36964844 143.25 327.91015625 C138.91168068 328.99024816 135.00131214 328.9472642 130.5703125 328.58984375 C129.83006836 328.53755615 129.08982422 328.48526855 128.32714844 328.43139648 C120.97136791 327.8596912 113.69829271 326.99123452 106.9453125 323.83984375 C106.9453125 323.17984375 106.9453125 322.51984375 106.9453125 321.83984375 C106.38585937 321.73285156 105.82640625 321.62585938 105.25 321.515625 C100.74281924 320.19402793 96.89946367 317.31819362 92.9453125 314.83984375 C92.30207031 314.45054687 91.65882813 314.06125 90.99609375 313.66015625 C88.09077772 311.84521306 87.06416603 311.19640434 85.9453125 307.83984375 C84.9553125 307.12828125 84.9553125 307.12828125 83.9453125 306.40234375 C81.5884023 304.56100765 81.59862519 303.63975527 80.9453125 300.83984375 C79.9553125 300.50984375 78.9653125 300.17984375 77.9453125 299.83984375 C77.9453125 299.17984375 77.9453125 298.51984375 77.9453125 297.83984375 C77.2853125 297.50984375 76.6253125 297.17984375 75.9453125 296.83984375 C75.6359375 296.01484375 75.3265625 295.18984375 75.0078125 294.33984375 C74.6571875 293.51484375 74.3065625 292.68984375 73.9453125 291.83984375 C72.9553125 291.50984375 71.9653125 291.17984375 70.9453125 290.83984375 C70.9453125 290.17984375 70.9453125 289.51984375 70.9453125 288.83984375 C70.4915625 288.40671875 70.0378125 287.97359375 69.5703125 287.52734375 C67.57957598 285.46004045 66.98713038 283.50729663 65.9453125 280.83984375 C65.18548059 279.32691574 64.40233207 277.82549869 63.59765625 276.3359375 C62.93733398 275.10133789 62.93733398 275.10133789 62.26367188 273.84179688 C61.34059005 272.12750206 60.4161027 270.41396335 59.49023438 268.70117188 C59.05130859 267.87939453 58.61238281 267.05761719 58.16015625 266.2109375 C57.75917725 265.4677124 57.35819824 264.7244873 56.94506836 263.95874023 C55.9453125 261.83984375 55.9453125 261.83984375 55.43188477 259.62915039 C55.27131592 259.0386792 55.11074707 258.44820801 54.9453125 257.83984375 C54.2853125 257.50984375 53.6253125 257.17984375 52.9453125 256.83984375 C51.875 254.84375 51.875 254.84375 50.8203125 252.40234375 C50.46710938 251.59925781 50.11390625 250.79617188 49.75 249.96875 C48.9453125 247.83984375 48.9453125 247.83984375 48.9453125 245.83984375 C48.2853125 245.50984375 47.6253125 245.17984375 46.9453125 244.83984375 C46.19921875 243.01953125 46.19921875 243.01953125 45.5078125 240.71484375 C44.56904666 237.70696135 43.55801611 234.83510454 42.2578125 231.96484375 C40.9453125 228.83984375 40.9453125 228.83984375 40.9453125 225.83984375 C40.2853125 225.50984375 39.6253125 225.17984375 38.9453125 224.83984375 C38.09375 222.84375 38.09375 222.84375 37.3203125 220.40234375 C37.05992188 219.59925781 36.79953125 218.79617188 36.53125 217.96875 C35.9453125 215.83984375 35.9453125 215.83984375 35.9453125 213.83984375 C35.2853125 213.50984375 34.6253125 213.17984375 33.9453125 212.83984375 C31.16382628 207.77666962 29.46900127 202.39042425 27.9453125 196.83984375 C27.62820312 196.21335937 27.31109375 195.586875 26.984375 194.94140625 C25.86167279 192.67067772 25.14995873 190.45913917 24.4453125 188.02734375 C24.18621094 187.14304687 23.92710938 186.25875 23.66015625 185.34765625 C23.09630744 183.3695637 22.54901473 181.38675192 22.0078125 179.40234375 C21.13783954 176.4853756 20.17593785 173.67386796 19.125 170.8203125 C17.03128027 165.09533455 15.00715225 159.3483741 13.0078125 153.58984375 C12.48840088 152.09638428 12.48840088 152.09638428 11.95849609 150.57275391 C9.56319535 143.66799549 7.22605267 136.74672105 4.953125 129.80078125 C4.33371289 127.98095807 3.67295582 126.17384656 2.9453125 124.39453125 C1.68867697 121.18422017 0.76007228 117.90264598 -0.1796875 114.58984375 C-2.67586077 105.90822123 -5.44666539 97.32161693 -8.28759766 88.74707031 C-10.13148186 83.09177004 -11.62391493 77.58087269 -12.5559082 71.70092773 C-12.72050537 71.08677002 -12.88510254 70.4726123 -13.0546875 69.83984375 C-13.7146875 69.50984375 -14.3746875 69.17984375 -15.0546875 68.83984375 C-14.7246875 67.84984375 -14.3946875 66.85984375 -14.0546875 65.83984375 C-14.7146875 65.50984375 -15.3746875 65.17984375 -16.0546875 64.83984375 C-16.44779164 62.51695563 -16.56218445 60.22139199 -16.7109375 57.87109375 C-16.824375 57.20078125 -16.9378125 56.53046875 -17.0546875 55.83984375 C-17.7146875 55.50984375 -18.3746875 55.17984375 -19.0546875 54.83984375 C-19.87109375 52.2578125 -19.87109375 52.2578125 -20.6171875 49.02734375 C-20.86597656 47.96902344 -21.11476563 46.91070312 -21.37109375 45.8203125 C-21.59667969 44.83675781 -21.82226562 43.85320312 -22.0546875 42.83984375 C-22.24933594 42.11410156 -22.44398437 41.38835937 -22.64453125 40.640625 C-23.0546875 38.83984375 -23.0546875 38.83984375 -23.0546875 35.83984375 C-23.7146875 35.50984375 -24.3746875 35.17984375 -25.0546875 34.83984375 C-25.90625 32.0390625 -25.90625 32.0390625 -26.6796875 28.52734375 C-26.94007812 27.37621094 -27.20046875 26.22507812 -27.46875 25.0390625 C-28.0546875 21.83984375 -28.0546875 21.83984375 -28.0546875 17.83984375 C-28.7146875 17.50984375 -29.3746875 17.17984375 -30.0546875 16.83984375 C-28.03933073 9.08847156 -25.91671055 3.59047509 -19.0546875 -1.16015625 C-12.59332092 -4.01806839 -6.13774552 -3.46560916 0 0 Z " fill="#0588EA" transform="translate(41.0546875,90.16015625)"/>
<path d="M0 0 C9.95132116 8.88007412 15.66200767 21.61233726 17.21875 34.703125 C17.77080164 46.57223532 14.41705024 57.16985392 10.92333984 68.42089844 C9.84160665 71.92053457 8.8041128 75.43147642 7.76953125 78.9453125 C7.07782312 81.23507175 6.38388029 83.52415735 5.6875 85.8125 C5.36716797 86.89901855 5.04683594 87.98553711 4.71679688 89.10498047 C4.40419922 90.10158691 4.09160156 91.09819336 3.76953125 92.125 C3.36504761 93.44951172 3.36504761 93.44951172 2.95239258 94.80078125 C1.875 96.8125 1.875 96.8125 -0.2434082 97.60546875 C-0.8643335 97.67378906 -1.48525879 97.74210937 -2.125 97.8125 C-2.24875 97.173125 -2.3725 96.53375 -2.5 95.875 C-2.70625 95.194375 -2.9125 94.51375 -3.125 93.8125 C-3.785 93.4825 -4.445 93.1525 -5.125 92.8125 C-6.46093952 90.66555966 -7.71527559 88.52278432 -8.9375 86.3125 C-9.46827148 85.36552246 -9.46827148 85.36552246 -10.00976562 84.39941406 C-10.7204589 83.130134 -11.42898296 81.85963673 -12.13525391 80.58789062 C-12.99991178 79.03688124 -13.87957006 77.49425349 -14.76171875 75.953125 C-15.21160156 75.16421875 -15.66148437 74.3753125 -16.125 73.5625 C-16.516875 72.87671875 -16.90875 72.1909375 -17.3125 71.484375 C-18.125 69.8125 -18.125 69.8125 -18.125 67.8125 C-18.785 67.8125 -19.445 67.8125 -20.125 67.8125 C-20.8354474 66.63858476 -21.51726744 65.44733071 -22.1875 64.25 C-22.57035156 63.58871094 -22.95320313 62.92742187 -23.34765625 62.24609375 C-24.98184838 57.13000482 -22.93251742 51.94187753 -21.46118164 46.96362305 C-19.6632 40.7489418 -18.402874 35.68605823 -21.03515625 29.51171875 C-23.68977094 25.37280337 -26.36084421 24.00353895 -31.125 22.8125 C-36.35009511 22.34597365 -39.76835699 22.81125703 -44.125 25.8125 C-47.88424662 30.82482882 -49.50961508 36.62183496 -51.28735352 42.56933594 C-53.22218056 48.83296919 -53.22218056 48.83296919 -56.125 50.8125 C-57.115 50.8125 -58.105 50.8125 -59.125 50.8125 C-59.455 51.4725 -59.785 52.1325 -60.125 52.8125 C-66.35576923 55.8125 -66.35576923 55.8125 -70.125 55.8125 C-70.455 56.4725 -70.785 57.1325 -71.125 57.8125 C-72.88745117 58.81811523 -72.88745117 58.81811523 -75.16796875 59.87109375 C-76.40836914 60.45020508 -76.40836914 60.45020508 -77.67382812 61.04101562 C-78.54458984 61.43998047 -79.41535156 61.83894531 -80.3125 62.25 C-82.01456989 63.03983258 -83.71639825 63.83018588 -85.41796875 64.62109375 C-86.22927246 64.99347168 -87.04057617 65.36584961 -87.87646484 65.74951172 C-89.79829127 66.65804942 -91.67979606 67.65106161 -93.55078125 68.66015625 C-96.125 69.8125 -96.125 69.8125 -99.125 68.8125 C-98.83496094 67.77802734 -98.83496094 67.77802734 -98.5390625 66.72265625 C-97.29387206 62.22887493 -96.07852236 57.75309437 -95.125 53.1875 C-94.14266769 48.65239916 -93.02116519 44.05991002 -91.125 39.8125 C-90.135 39.3175 -90.135 39.3175 -89.125 38.8125 C-88.50512779 36.17020305 -88.50512779 36.17020305 -88.125 33.0625 C-87.56848041 29.02773297 -86.92445792 25.49080368 -85.125 21.8125 C-84.135 21.3175 -84.135 21.3175 -83.125 20.8125 C-82.7701046 18.81621336 -82.43921071 16.81559329 -82.125 14.8125 C-80.71365521 10.93130184 -78.04550605 8.66347019 -75.125 5.8125 C-74.55136719 5.03003906 -73.97773438 4.24757813 -73.38671875 3.44140625 C-70.72675393 0.34959913 -67.74217222 -1.68500279 -64.3125 -3.8125 C-63.72146484 -4.1940625 -63.13042969 -4.575625 -62.52148438 -4.96875 C-41.37743613 -18.34230287 -19.47352747 -13.63146923 0 0 Z " fill="#0688EA" transform="translate(471.125,100.1875)"/>
<path d="M0 0 C3.50972989 2.7148793 4.42723639 6.51065178 5.75 10.5625 C8.21626118 17.88403867 10.93660477 25.0634438 13.90332031 32.19750977 C16.10901934 37.67294197 16.10901934 37.67294197 15 41 C13 38 13 38 13 34 C12.34 34 11.68 34 11 34 C10.731875 32.824375 10.46375 31.64875 10.1875 30.4375 C9.17949812 26.41254145 7.69992242 22.79213463 6 19 C0 4.68339768 0 4.68339768 0 0 Z " fill="#3677AF" transform="translate(222,248)"/>
<path d="M0 0 C1 3 1 3 0.34741211 4.89770508 C-0.00571045 5.59790771 -0.35883301 6.29811035 -0.72265625 7.01953125 C-1.09583984 7.79490234 -1.46902344 8.57027344 -1.85351562 9.36914062 C-2.65562471 10.99020438 -3.46546402 12.60746742 -4.28320312 14.22070312 C-6.60442252 19.0015627 -6.60442252 19.0015627 -6.47265625 24.20703125 C-4.8949186 27.19929231 -3.2359277 30.04914683 -1.375 32.875 C-0.74335938 33.84179688 -0.11171875 34.80859375 0.5390625 35.8046875 C1.02117187 36.52914062 1.50328125 37.25359375 2 38 C0.046875 37.1328125 0.046875 37.1328125 -2 36 C-2.75 33.875 -2.75 33.875 -3 32 C-3.66 32 -4.32 32 -5 32 C-7.26324813 28.80115889 -8.94614264 25.78888301 -10 22 C-9.22080169 17.71332206 -7.36352892 14.19169729 -5.3125 10.375 C-4.81298828 9.37082031 -4.31347656 8.36664063 -3.79882812 7.33203125 C-2.56674034 4.86785568 -1.30134028 2.42810664 0 0 Z " fill="#368BCB" transform="translate(201,287)"/>
<path d="M0 0 C0 0.33 0 0.66 0 1 C-0.72445312 1.02578125 -1.44890625 1.0515625 -2.1953125 1.078125 C-9.22373168 1.49045893 -13.63931922 2.51484956 -18.6875 7.75 C-20 9 -20 9 -23 9 C-23 8.34 -23 7.68 -23 7 C-15.80106016 0.15222795 -9.75272805 -1.62872521 0 0 Z " fill="#398AC6" transform="translate(108,88)"/>
<path d="M0 0 C3.17968672 0.46532001 6.14527501 1.04513398 9.21875 2 C13.19501548 3.05157434 16.83536113 3.40718732 20.9375 3.625 C21.62134766 3.66367187 22.30519531 3.70234375 23.00976562 3.7421875 C24.67279513 3.83522412 26.33635847 3.91863787 28 4 C26 6 26 6 22.5 6.1875 C20.99940994 6.14128618 19.4993017 6.07746392 18 6 C16.77796875 5.95552734 16.77796875 5.95552734 15.53125 5.91015625 C9.44495004 5.52506628 5.28598023 4.0345442 0 1 C0 0.67 0 0.34 0 0 Z " fill="#4B8AB9" transform="translate(192,365)"/>
<path d="M0 0 C0.66 0.33 1.32 0.66 2 1 C-5.11389522 9.6309795 -5.11389522 9.6309795 -10 12 C-7.75066455 6.93899525 -4.58147862 3.10886049 0 0 Z " fill="#278AD5" transform="translate(404,98)"/>
<path d="M0 0 C4.03225064 1.34408355 5.0861709 3.94609851 7.125 7.4375 C7.48464844 8.03626953 7.84429687 8.63503906 8.21484375 9.25195312 C9.54221072 11.47168853 10.84300701 13.68601403 12 16 C10.0625 15.25 10.0625 15.25 8 14 C7.25 11.875 7.25 11.875 7 10 C6.34 10 5.68 10 5 10 C3.35 6.7 1.7 3.4 0 0 Z " fill="#2F7AB8" transform="translate(191,309)"/>
<path d="M0 0 C1.0906807 3.26467263 0.91547925 5.09600579 -0.25 8.3125 C-0.52972656 9.09109375 -0.80945313 9.8696875 -1.09765625 10.671875 C-2.31846343 13.82166323 -3.6218957 16.91567133 -5 20 C-5.66 19.67 -6.32 19.34 -7 19 C-4.7016023 12.65315559 -2.38321358 6.31551599 0 0 Z " fill="#4B8AB9" transform="translate(365,188)"/>
<path d="M0 0 C1.56393356 3.97376829 0.36145292 6.81377903 -0.9375 10.75 C-1.31777344 11.92046875 -1.69804687 13.0909375 -2.08984375 14.296875 C-2.39019531 15.18890625 -2.69054687 16.0809375 -3 17 C-1.68 16.67 -0.36 16.34 1 16 C0.01 16.99 -0.98 17.98 -2 19 C-2.99 18.67 -3.98 18.34 -5 18 C-3.36959185 11.98922864 -1.72852643 5.98336072 0 0 Z " fill="#3D8AC4" transform="translate(377,151)"/>
<path d="M0 0 C2.125 0.375 2.125 0.375 4 1 C3.52797514 5.24822374 1.03344482 7.19989709 -2 10 C-1.34 7.69 -0.68 5.38 0 3 C-0.66 2.67 -1.32 2.34 -2 2 C-1.34 1.34 -0.68 0.68 0 0 Z " fill="#3185C6" transform="translate(254,332)"/>
<path d="M0 0 C0.66 0 1.32 0 2 0 C2.50757862 1.41396902 3.00574925 2.83131729 3.5 4.25 C3.7784375 5.03890625 4.056875 5.8278125 4.34375 6.640625 C5 9 5 9 5 13 C4.34 13 3.68 13 3 13 C2.71125 11.9275 2.4225 10.855 2.125 9.75 C1.17357654 6.16546862 1.17357654 6.16546862 -0.1875 3.6875 C-0.455625 3.130625 -0.72375 2.57375 -1 2 C-0.67 1.34 -0.34 0.68 0 0 Z " fill="#5884A5" transform="translate(68,281)"/>
<path d="M0 0 C1.09651823 3.41139003 0.94215473 6.20655581 0.5625 9.75 C0.40974609 11.22726563 0.40974609 11.22726563 0.25390625 12.734375 C0.12822266 13.85585937 0.12822266 13.85585937 0 15 C-0.12375 14.360625 -0.2475 13.72125 -0.375 13.0625 C-0.58125 12.381875 -0.7875 11.70125 -1 11 C-1.66 10.67 -2.32 10.34 -3 10 C-2.05066101 6.64566891 -1.10251165 3.30753495 0 0 Z " fill="#478ABC" transform="translate(14,97)"/>
<path d="M0 0 C1.32 0.33 2.64 0.66 4 1 C4.33 1.66 4.66 2.32 5 3 C4.1028125 3.0309375 4.1028125 3.0309375 3.1875 3.0625 C0.56685398 3.90456616 0.56685398 3.90456616 -0.75 7.5625 C-1.1625 8.696875 -1.575 9.83125 -2 11 C-2.66 10.67 -3.32 10.34 -4 10 C-2.68 6.7 -1.36 3.4 0 0 Z " fill="#348BCD" transform="translate(435,193)"/>
<path d="M0 0 C2.73902249 2.36551942 3.93170092 4.54857221 5 8 C5.125 10.8125 5.125 10.8125 5 13 C0.87010523 8.73688282 0.38728235 5.71241466 0 0 Z " fill="#4C7DA4" transform="translate(222,248)"/>
<path d="M0 0 C0.99 0 1.98 0 3 0 C3 1.98 3 3.96 3 6 C2.01 6 1.02 6 0 6 C0 4.02 0 2.04 0 0 Z " fill="#6391B2" transform="translate(444,149)"/>
<path d="M0 0 C1.8871875 0.0309375 1.8871875 0.0309375 3.8125 0.0625 C3.8125 0.7225 3.8125 1.3825 3.8125 2.0625 C2.20375 2.000625 2.20375 2.000625 0.5625 1.9375 C-2.84497485 2.0510825 -4.39489631 2.27523364 -7.1875 4.0625 C-7.1875 3.0725 -7.1875 2.0825 -7.1875 1.0625 C-4.43671116 0.14557039 -2.82801087 -0.04636083 0 0 Z " fill="#5189B3" transform="translate(436.1875,120.9375)"/>
<path d="M0 0 C3.48670834 1.1094072 6.77484237 2.26337666 10 4 C10 4.66 10 5.32 10 6 C6.51329166 4.8905928 3.22515763 3.73662334 0 2 C0 1.34 0 0.68 0 0 Z " fill="#688396" transform="translate(353,362)"/>
<path d="M0 0 C0.66 0 1.32 0 2 0 C1.40138258 2.35171131 0.73075648 4.6859378 0 7 C-0.99 7.495 -0.99 7.495 -2 8 C-1.47731534 5.23723823 -0.89130413 2.6739124 0 0 Z " fill="#B58A5D" transform="translate(340,233)"/>
<path d="M0 0 C0.66 0 1.32 0 2 0 C1.67 1.32 1.34 2.64 1 4 C0.67 2.68 0.34 1.36 0 0 Z " fill="#BC8A55" transform="translate(172,238)"/>
<path d="M0 0 C0.66 0.66 1.32 1.32 2 2 C1.01 2.495 1.01 2.495 0 3 C0 2.01 0 1.02 0 0 Z " fill="#C28B4F" transform="translate(256,355)"/>
<path d="" fill="#C28B4F" transform="translate(0,0)"/>
</svg>
